<svg class="svg-icon" style="width: 1em;height: 1em;vertical-align: middle;fill: currentColor;overflow: hidden;" viewBox="0 0 1024 1024" version="1.1" xmlns="http://www.w3.org/2000/svg"><path d="M719.2 372a44.8 44.8 0 1 0 44.8 44.8 44.8 44.8 0 0 0-44.8-44.8zM316 372a44.8 44.8 0 1 0 44.8 44.8 44.8 44.8 0 0 0-44.8-44.8zM707.786667 542.826667a33.546667 33.546667 0 0 0-33.013334 27.68 156.853333 156.853333 0 0 1-308.746666 0 33.6 33.6 0 1 0-66.133334 12 224 224 0 0 0 441.013334 0 33.706667 33.706667 0 0 0-33.12-39.68z" fill="#333333" /><path d="M512 128a384 384 0 1 1-384 384 384.426667 384.426667 0 0 1 384-384m0-64a448 448 0 1 0 448 448 448 448 0 0 0-448-448z" fill="#333333" /></svg>